<svg width="117" height="130" viewBox="0 0 117 130" fill="none" xmlns="http://www.w3.org/2000/svg">
<path d="M1.2642 101V86.4545H4.33949V92.456H10.5824V86.4545H13.6506V101H10.5824V94.9915H4.33949V101H1.2642ZM17.3338 86.4545H20.7784L24.0952 92.7188H24.2372L27.554 86.4545H30.9986L25.6932 95.858V101H22.6392V95.858L17.3338 86.4545ZM34.6783 101V86.4545H44.4794V88.9901H37.7536V92.456H43.9751V94.9915H37.7536V98.4645H44.5078V101H34.6783ZM62.2908 93.7273C62.2908 95.3134 61.9902 96.6629 61.3888 97.7756C60.7923 98.8883 59.9779 99.7382 58.9457 100.325C57.9182 100.908 56.7629 101.199 55.4798 101.199C54.1871 101.199 53.0271 100.905 51.9996 100.318C50.9722 99.7311 50.1602 98.8812 49.5636 97.7685C48.967 96.6558 48.6687 95.3087 48.6687 93.7273C48.6687 92.1411 48.967 90.7917 49.5636 89.679C50.1602 88.5663 50.9722 87.7187 51.9996 87.1364C53.0271 86.5492 54.1871 86.2557 55.4798 86.2557C56.7629 86.2557 57.9182 86.5492 58.9457 87.1364C59.9779 87.7187 60.7923 88.5663 61.3888 89.679C61.9902 90.7917 62.2908 92.1411 62.2908 93.7273ZM59.1729 93.7273C59.1729 92.6998 59.0191 91.8333 58.7113 91.1278C58.4083 90.4223 57.9798 89.8873 57.4258 89.5227C56.8718 89.1581 56.2231 88.9759 55.4798 88.9759C54.7364 88.9759 54.0877 89.1581 53.5337 89.5227C52.9798 89.8873 52.5489 90.4223 52.2411 91.1278C51.9381 91.8333 51.7866 92.6998 51.7866 93.7273C51.7866 94.7547 51.9381 95.6212 52.2411 96.3267C52.5489 97.0322 52.9798 97.5672 53.5337 97.9318C54.0877 98.2964 54.7364 98.4787 55.4798 98.4787C56.2231 98.4787 56.8718 98.2964 57.4258 97.9318C57.9798 97.5672 58.4083 97.0322 58.7113 96.3267C59.0191 95.6212 59.1729 94.7547 59.1729 93.7273ZM66.5689 101V86.4545H69.6442V92.8679H69.8359L75.0703 86.4545H78.7564L73.3587 92.9673L78.8203 101H75.1413L71.157 95.0199L69.6442 96.8665V101H66.5689ZM88.1818 86.4545H91.2216V96.5966C91.2216 97.5341 91.0109 98.3485 90.5895 99.0398C90.1728 99.7311 89.5928 100.264 88.8494 100.638C88.1061 101.012 87.242 101.199 86.2571 101.199C85.3812 101.199 84.5857 101.045 83.8707 100.737C83.1605 100.425 82.5971 99.9512 82.1804 99.3168C81.7637 98.6776 81.5578 97.875 81.5625 96.9091H84.6236C84.633 97.2926 84.7112 97.6217 84.858 97.8963C85.0095 98.1662 85.2154 98.3745 85.4759 98.5213C85.741 98.6634 86.0535 98.7344 86.4134 98.7344C86.7921 98.7344 87.1117 98.6539 87.3722 98.4929C87.6373 98.3272 87.8385 98.0857 87.9759 97.7685C88.1132 97.4512 88.1818 97.0606 88.1818 96.5966V86.4545ZM98.8395 86.4545V101H95.7642V86.4545H98.8395ZM115.536 86.4545V101H112.88L106.551 91.8452H106.445V101H103.37V86.4545H106.069L112.347 95.6023H112.475V86.4545H115.536Z" fill="#616161"/>
<path d="M25.2642 125V110.455H31.0028C32.1061 110.455 33.0459 110.665 33.8224 111.087C34.599 111.503 35.1908 112.083 35.598 112.827C36.0099 113.565 36.2159 114.418 36.2159 115.384C36.2159 116.349 36.0076 117.202 35.5909 117.94C35.1742 118.679 34.5705 119.254 33.7798 119.666C32.9938 120.078 32.0421 120.284 30.9247 120.284H27.267V117.82H30.4276C31.0194 117.82 31.5071 117.718 31.8906 117.514C32.2789 117.306 32.5677 117.019 32.7571 116.655C32.9512 116.286 33.0483 115.862 33.0483 115.384C33.0483 114.901 32.9512 114.479 32.7571 114.119C32.5677 113.755 32.2789 113.473 31.8906 113.274C31.5024 113.071 31.0099 112.969 30.4134 112.969H28.3395V125H25.2642ZM41.0408 125H37.7454L42.7667 110.455H46.7298L51.744 125H48.4485L44.805 113.778H44.6914L41.0408 125ZM40.8349 119.283H48.619V121.683H40.8349V119.283ZM67.6449 115.547H64.5341C64.4773 115.144 64.3613 114.787 64.1861 114.474C64.0109 114.157 63.786 113.887 63.5114 113.665C63.2367 113.442 62.9195 113.272 62.5597 113.153C62.2045 113.035 61.8187 112.976 61.402 112.976C60.6491 112.976 59.9934 113.163 59.4347 113.537C58.8759 113.906 58.4427 114.446 58.1349 115.156C57.8272 115.862 57.6733 116.719 57.6733 117.727C57.6733 118.764 57.8272 119.635 58.1349 120.341C58.4474 121.046 58.883 121.579 59.4418 121.939C60.0005 122.299 60.6468 122.479 61.3807 122.479C61.7926 122.479 62.1738 122.424 62.5241 122.315C62.8793 122.206 63.1941 122.048 63.4688 121.839C63.7434 121.626 63.9706 121.368 64.1506 121.065C64.3352 120.762 64.4631 120.417 64.5341 120.028L67.6449 120.043C67.5644 120.71 67.3632 121.354 67.0412 121.974C66.724 122.59 66.2955 123.142 65.7557 123.629C65.2206 124.112 64.5814 124.496 63.8381 124.78C63.0994 125.059 62.2637 125.199 61.331 125.199C60.0336 125.199 58.8736 124.905 57.8509 124.318C56.8329 123.731 56.0279 122.881 55.4361 121.768C54.849 120.656 54.5554 119.309 54.5554 117.727C54.5554 116.141 54.8537 114.792 55.4503 113.679C56.0469 112.566 56.8565 111.719 57.8793 111.136C58.902 110.549 60.0526 110.256 61.331 110.256C62.1738 110.256 62.955 110.374 63.6747 110.611C64.3991 110.848 65.0407 111.193 65.5994 111.648C66.1581 112.098 66.6127 112.649 66.9631 113.303C67.3182 113.956 67.5455 114.704 67.6449 115.547ZM71.8501 125V110.455H74.9254V116.868H75.1172L80.3516 110.455H84.0376L78.6399 116.967L84.1016 125H80.4226L76.4382 119.02L74.9254 120.866V125H71.8501Z" fill="#616161"/>
<path d="M90.77 8.57959C90.77 11.0096 88.8 12.9697 86.38 12.9697C83.96 12.9697 81.99 10.9996 81.99 8.57959C81.99 6.15959 83.96 4.18994 86.38 4.18994C88.8 4.18994 90.77 6.15959 90.77 8.57959Z" fill="#616161"/>
<path d="M63.03 25.6396V58.3799H76.21V15.6196C71.22 18.5196 66.84 21.9699 63.03 25.6499V25.6396Z" fill="#616161"/>
<path d="M76.21 9.44971V0H63.03V15.3101C68.72 12.2001 73.33 10.3997 76.21 9.44971Z" fill="#616161"/>
<path d="M41.1799 31.0601V0H28V44.9497C32.42 39.5997 36.8599 34.9998 41.1799 31.0698V31.0601Z" fill="#616161"/>
<path d="M28 47.4697V58.3799H41.1799C42.0599 51.8899 54.0699 23.9999 80.2999 11.6499L79.7899 10.0698C79.7899 10.0698 53.25 16.07 28 47.46V47.4697Z" fill="#616161"/>
</svg>
