<svg width="146" height="37" viewBox="0 0 146 37" fill="none" xmlns="http://www.w3.org/2000/svg">
<path d="M54 30C51.91 27.55 51 24.62 51 20V19C51 14.36 51.91 11.46 54 9H56C53.97 11.58 52 14.85 52 19V20C52 24.02 53.97 27.4 56 30H54Z" fill="white"/>
<path d="M64 30V22H56V20H73V22H65V30H64ZM72 18C68.76 17.36 64.9 15.14 64 13C63.19 15.13 60.4 17.36 57 18L56 16C59.24 15.61 63.92 13.19 64 10H57V9H72V10H65C65.09 13.21 69.97 15.61 73 16L72 18Z" fill="white"/>
<path d="M74 30C76.01 27.42 77 24.15 77 20V19C77 14.98 76.01 11.6 74 9H75C77.09 11.45 79 14.38 79 19V20C79 24.64 77.1 27.54 75 30H74Z" fill="white"/>
<path d="M82 13V10H94V13H82ZM88 21C84.84 21 82 20.36 82 18C82 15.64 84.81 14 88 14C91.19 14 93 15.65 93 18C93 20.35 91.19 21 88 21ZM97 30V25H85V23H101V30H97ZM85 9V7H91V9H85ZM88 16C86.63 16 85 17.02 85 18C85 18.98 86.63 19 88 19C89.37 19 90 18.98 90 18C90 17.02 89.38 16 88 16ZM97 21V19H94V16H97V14H94V12H97V7H100V21H97Z" fill="white"/>
<path d="M104 8H117V11H112C112.05 14.53 114.35 17.16 117 18L116 20C114.26 19.34 112.03 17.21 111 15C110.29 17.33 107.23 20.21 105 21L104 18C107.36 16.77 109 14.56 109 11H104V8ZM107 29V22H110V27H123V29H107ZM120 23V7H123V23H120Z" fill="white"/>
<path d="M137 19C134.42 19.39 129.63 19.93 126 20V18C126.86 18 127.19 18.02 128 18C127.8 16.18 127.18 13.74 127 12H130C130.07 13.81 130.93 16.09 131 18H132C132.15 16.11 132.88 13.79 133 12H136C135.8 13.64 135.2 15.24 135 17C135.91 16.93 136.44 17.08 137 17V19ZM126 11V8H137V11H126ZM146 22V30H143V24H129V22H146ZM143 21V15H141V20H138V7H141V12H143V7H146V21H143Z" fill="white"/>
<path d="M38 8C39.5133 8 41 6.51326 41 5C41 3.48674 39.5133 3 38 3C36.4867 3 36 3.48674 36 5C36 6.51326 36.4867 8 38 8Z" fill="white"/>
<path d="M25 16V36H33V10C29.89 11.8 27.37 13.7 25 16Z" fill="white"/>
<path d="M33 5V0H25V9C28.54 7.06 31.21 5.59 33 5Z" fill="white"/>
<path d="M11 19V0H3V28C5.76 24.67 8.31 21.45 11 19Z" fill="white"/>
<path d="M0 30V37H8C8.55 32.95 15.65 14.69 32 7C32 7 15.74 10.44 0 30Z" fill="white"/>
</svg>
