<svg width="145" height="37" viewBox="0 0 145 37" fill="none" xmlns="http://www.w3.org/2000/svg">
<path d="M52.97 29.22C50.88 26.77 49.04 23.19 49.04 18.57V18.15C49.04 13.51 50.88 9.96 52.97 7.5H54.53C52.5 10.08 50.88 13.8 50.88 17.95V18.59C50.88 22.61 52.5 26.61 54.53 29.21H52.97V29.22Z" fill="#3551A1"/>
<path d="M62.5701 29.4898V21.3198H54.5001V19.6498H72.4301V21.3198H64.3001V29.4898H62.5701ZM70.7701 17.5198C67.5301 16.8798 64.3701 14.5798 63.4701 12.4398C62.6601 14.5698 59.5901 16.9298 56.1901 17.5698L55.4001 15.8998C58.6401 15.5098 62.4901 13.1298 62.5701 9.9398H56.1501V8.2998H70.7701V9.9398H64.3901C64.4801 13.1498 68.5501 15.4598 71.5801 15.8498L70.7701 17.5198Z" fill="#3551A1"/>
<path d="M72.41 29.2198C74.42 26.6398 76.06 22.9198 76.06 18.7698V18.1298C76.06 14.1098 74.42 10.1098 72.41 7.50977H73.97C76.06 9.95977 77.88 13.5398 77.88 18.1598V18.5798C77.88 23.2198 76.07 26.7698 73.97 29.2298H72.41V29.2198Z" fill="#3551A1"/>
<path d="M80.23 12.8102V10.4302H92.42V12.8102H80.23ZM86.53 21.3902C83.37 21.3902 80.9901 19.8002 80.9901 17.4402C80.9901 15.0802 83.34 13.4702 86.53 13.4702C89.72 13.4702 92.05 15.0902 92.05 17.4402C92.05 19.7902 89.72 21.3902 86.53 21.3902ZM96.17 29.7302V24.8702H83.2701V22.4402H99.2401V29.7302H96.17ZM83.4901 9.37019V7.0202H89.7401V9.37019H83.4901ZM86.53 15.7502C85.16 15.7502 84.03 16.4602 84.03 17.4402C84.03 18.4202 85.16 19.1302 86.53 19.1302C87.9 19.1302 89.06 18.4202 89.06 17.4402C89.06 16.4602 87.91 15.7502 86.53 15.7502ZM96.15 21.3902V18.6202H93.08V16.2902H96.15V14.2102H93.11V11.8502H96.15V6.4502H99.22V21.3902H96.15Z" fill="#3551A1"/>
<path d="M103.61 8.34019H115.85V10.7402H111.41C111.46 14.2702 113.89 16.8702 116.54 17.7102L114.87 20.1102C113.13 19.4502 110.9 17.5602 109.87 15.3502C109.16 17.6802 106.75 20.0102 104.52 20.8002L102.68 18.3702C106.04 17.1402 108.27 14.3002 108.27 10.7402H103.61V8.34019ZM106.26 29.0902V21.7302H109.3V26.6802H122.28V29.0802H106.26V29.0902ZM118.72 23.3302V6.4502H121.76V23.3302H118.72Z" fill="#3551A1"/>
<path d="M136.72 19.38C134.14 19.77 128.85 20.09 125.22 20.16L124.83 17.66C125.69 17.66 126.52 17.66 127.33 17.64C127.13 15.82 126.99 13.79 126.81 12.05L129.73 11.71C129.8 13.52 129.93 15.66 130 17.57L131.64 17.5C131.79 15.61 131.96 13.53 132.08 11.74L134.85 12.01C134.65 13.65 134.46 15.57 134.26 17.33C135.17 17.26 135.93 17.16 136.49 17.08L136.71 19.39L136.72 19.38ZM125.42 10.77V8.33996H136.14V10.77H125.42ZM144.89 21.66V29.73H141.85V24.06H128.75V21.66H144.89ZM142 20.61V14.58H140.23V20.37H137.38V6.87996H140.23V12.1H142V6.45996H144.89V20.61H142Z" fill="#3551A1"/>
<path d="M8.61002 -0.00976562H0.400024V36.3602H8.61002V-0.00976562Z" fill="#E95539"/>
<path d="M30.43 -0.00976562H22.22V36.3602H30.43V-0.00976562Z" fill="#E95539"/>
<path d="M36.77 8.06984C38.2833 8.06984 39.51 6.84311 39.51 5.32985C39.51 3.81659 38.2833 2.58984 36.77 2.58984C35.2568 2.58984 34.03 3.81659 34.03 5.32985C34.03 6.84311 35.2568 8.06984 36.77 8.06984Z" fill="#E95539"/>
<path d="M0.400024 29.5605V36.3605H8.61002C9.16002 32.3105 16.64 14.9405 32.99 7.25051L32.67 6.27051C32.67 6.27051 16.14 10.0105 0.400024 29.5705V29.5605Z" fill="#3551A1"/>
</svg>
